<?xml version="1.0" encoding="UTF-8"?>
<svg version="1.1" xmlns="http://www.w3.org/2000/svg" width="1024" height="1024">
<path d="M0 0 C0.54140625 0.39960938 1.0828125 0.79921875 1.640625 1.2109375 C11.35791709 8.85802389 16.51798873 19.89690793 18 32 C18.66 32.99 19.32 33.98 20 35 C20.37159535 37.80385586 20.50444532 40.58268291 20.65625 43.40625 C20.83706137 46.23288285 20.83706137 46.23288285 23 49 C23.40268166 51.30143756 23.7272946 53.61706919 24 55.9375 C24.4958424 60.14773323 25.06565935 63.26391463 27 67 C27.3559243 69.52382686 27.50117559 72.01927975 27.65625 74.5625 C27.86389369 76.98713951 27.86389369 76.98713951 28.96875 78.90625 C30.80795572 82.64039495 30.91201423 86.81496796 31.4375 90.90625 C31.95238856 93.73813705 32.72001573 95.48132128 34 98 C34.3559243 100.52382686 34.50117559 103.01927975 34.65625 105.5625 C34.86559562 107.99863291 34.86559562 107.99863291 36 109.96875 C37.62591903 113.27139803 37.4568837 116.71528334 37.65625 120.34375 C37.84669921 122.95877374 37.84669921 122.95877374 38.96875 124.9375 C40.82417472 128.64834945 40.91393139 132.8298944 41.4375 136.90625 C41.83391527 139.90898015 41.83391527 139.90898015 43.03125 142.05859375 C44.66473581 145.332152 44.46068354 148.83809426 44.65625 152.44140625 C44.84134872 155.2375731 44.84134872 155.2375731 47 158 C47.30859375 160.19921875 47.30859375 160.19921875 47.4375 162.6875 C47.70825101 166.08911718 48.17472258 168.85646758 49.5 172 C51.14780816 175.90856912 51.47311492 179.58709719 51.69140625 183.80078125 C51.87819387 186.2871306 51.87819387 186.2871306 54 189 C54.37448273 192.06394965 54.50515261 195.10511326 54.65625 198.1875 C54.81095329 201.20356057 54.81095329 201.20356057 57 204 C57.40069928 206.13428018 57.72613637 208.28326916 58 210.4375 C58.51221833 214.45749921 59.14620399 217.4269577 61 221 C61.34375 223.18359375 61.34375 223.18359375 61.5 225.4375 C61.74868822 229.01239311 62.66218955 231.68587866 64 235 C64.37806802 236.80369951 64.71085382 238.61742807 65 240.4375 C65.51640536 243.48307174 66.06582204 246.19359425 67.0625 249.125 C68.13813168 252.42360383 68.41801696 255.50079557 68.65625 258.94921875 C68.90710085 261.30429752 68.90710085 261.30429752 71 264 C71.30859375 266.48828125 71.30859375 266.48828125 71.4375 269.3125 C71.7727169 273.9689675 72.87424415 276.83706145 75 281 C75.36287511 283.54828027 75.55929811 286.06270875 75.69140625 288.6328125 C76.02175488 291.16687923 76.85243217 292.74058629 78 295 C78.35076406 297.26402255 78.49976428 299.49655852 78.65625 301.78125 C78.88282692 304.01599992 78.88282692 304.01599992 79.96875 305.8828125 C81.3308131 308.67916932 81.59817395 311.29672545 82 314.375 C82.58440123 318.83105939 83.56921393 322.74802689 85 327 C85.32575779 329.32102426 85.49479375 331.61213952 85.65625 333.94921875 C85.90710085 336.30429752 85.90710085 336.30429752 88 339 C88.34375 341.33984375 88.34375 341.33984375 88.5 343.9375 C88.66249274 346.63081719 88.78105188 348.56721538 90.00390625 350.984375 C91.24657064 353.49894294 91.30715079 355.51986697 91.4375 358.3125 C91.78829158 363.12791165 93.03322647 366.57475956 95 371 C95.3494765 373.33246115 95.55559671 375.63034305 95.69140625 377.984375 C95.90242656 380.31123002 95.90242656 380.31123002 98 383 C98.30859375 385.453125 98.30859375 385.453125 98.4375 388.25 C98.79327414 393.0974226 99.97999298 396.55598456 102 401 C103.71408948 407.58633011 104.5288093 414.38314032 105.4375 421.1171875 C105.96502953 423.82077633 106.76311707 425.57938145 108 428 C108.38669057 429.80187063 108.71711752 431.61644403 109 433.4375 C109.59031519 437.22711271 110.46642962 440.479178 112 444 C112.33 444 112.66 444 113 444 C113.12375 442.7625 113.2475 441.525 113.375 440.25 C113.76802094 437.04407205 114.51922514 434.8690013 116 432 C116.165 430.824375 116.33 429.64875 116.5 428.4375 C117 425 117 425 119 422 C119.39171753 420.34608154 119.72057545 418.67654729 120 417 C120.57693206 413.53840765 121.00086485 411.99870273 123 409 C123.37919775 407.05008841 123.37919775 407.05008841 123.5 405 C123.74820855 401.72364714 124.05564158 400.91653763 126 398 C126.41007897 396.47225481 126.76152541 394.9279277 127.0625 393.375 C127.89939638 389.10060362 127.89939638 389.10060362 129 388 C129.53487482 385.49193151 129.96405456 382.97192079 130.40234375 380.4453125 C131 378 131 378 133 375 C133.41421802 373.30522561 133.76430827 371.59398764 134.0625 369.875 C134.89982425 365.10017575 134.89982425 365.10017575 136 364 C136.47498227 361.89650709 136.94636742 359.79212956 137.3984375 357.68359375 C138.03752986 354.83257781 138.749535 352.01121933 139.5 349.1875 C139.85578125 347.84751953 139.85578125 347.84751953 140.21875 346.48046875 C141 344 141 344 142.02734375 341.96875 C143.11935714 339.75840963 143.5875198 337.72731531 144.0625 335.3125 C144.89591837 331.10408163 144.89591837 331.10408163 146 330 C146.53436584 327.78619867 146.96284612 325.55863947 147.40234375 323.32421875 C148.00331749 320.98709865 148.90420704 319.13981618 150 317 C150.49240148 315.06322086 150.98271167 313.12583059 151.453125 311.18359375 C156.39901301 291.43536949 167.6794891 275.77720678 185 265 C185.763125 264.484375 186.52625 263.96875 187.3125 263.4375 C190.45373986 261.75730194 193.61877454 260.70908897 197.01171875 259.6484375 C199.04255198 259.04032829 199.04255198 259.04032829 201 258 C202.41656715 257.90287287 203.83758823 257.86723087 205.2574749 257.86298561 C206.15625606 257.85791107 207.05503723 257.85283653 207.98105419 257.84760821 C208.97479868 257.84711045 209.96854316 257.84661269 210.99240112 257.84609985 C212.04328324 257.8417176 213.09416537 257.83733535 214.1768924 257.8328203 C217.72193392 257.81939432 221.26695057 257.81324482 224.81201172 257.80712891 C227.34452935 257.79923069 229.87704585 257.79096192 232.40956116 257.78234863 C240.02916712 257.75835614 247.64877187 257.7431915 255.26840371 257.73028857 C257.42143734 257.72657672 259.57447032 257.72260345 261.7275033 257.7185359 C275.10190787 257.69329061 288.47631347 257.6712406 301.85073662 257.65880775 C304.94997028 257.6558781 308.04920392 257.65291644 311.1484375 257.64990234 C311.918728 257.64915629 312.6890185 257.64841024 313.48265113 257.64764158 C325.94518347 257.63500334 338.40757264 257.60180285 350.87003814 257.56010051 C363.67094082 257.51761789 376.47177038 257.4941051 389.27274334 257.48888719 C396.45746847 257.48547934 403.64197023 257.47379926 410.82662582 257.44078445 C417.5916485 257.40974904 424.356215 257.40440253 431.12132072 257.41616821 C433.59963493 257.41638873 436.0779673 257.4081019 438.5562191 257.39051437 C462.54723273 257.2295765 462.54723273 257.2295765 472 263 C473.134375 263.66 474.26875 264.32 475.4375 265 C478.19369105 267.1511735 480.59671998 269.46320442 483 272 C483.66 272.66 484.32 273.32 485 274 C485.68753301 275.65816784 486.35561283 277.32459336 487 279 C487.33 279.33 487.66 279.66 488 280 C488.42626072 284.44782509 488.46562618 288.90979267 488.5625 293.375 C488.6562793 295.23318359 488.6562793 295.23318359 488.75195312 297.12890625 C488.9184707 306.70619008 486.54820586 312.05066611 480 319 C478.26132781 320.76229619 476.62802536 322.14010739 474.625 323.625 C473.79226563 324.25664063 472.95953125 324.88828125 472.1015625 325.5390625 C469.11273711 327.61679613 467.47783374 328.12575987 463.88638306 328.13587189 C463.01975225 328.14072963 462.15312145 328.14558738 461.26022911 328.15059233 C460.30246386 328.15088831 459.3446986 328.1511843 458.35791016 328.15148926 C456.8383821 328.15783787 456.8383821 328.15783787 455.28815651 328.16431475 C451.87179043 328.17739799 448.45544771 328.1833786 445.0390625 328.18945312 C442.59869238 328.19739095 440.15832369 328.20577853 437.71795654 328.21458435 C432.45233526 328.23267415 427.18671797 328.24778877 421.92108154 328.26036072 C414.30561772 328.27863469 406.6901848 328.30329962 399.07474542 328.32973462 C386.71715795 328.37254874 374.35956197 328.41165895 362.00195312 328.44775391 C361.26193629 328.44991671 360.52191945 328.45207951 359.75947785 328.45430785 C353.75460866 328.4718303 347.74973896 328.48917422 341.74486923 328.50651073 C336.4959282 328.5216724 331.24698739 328.53690533 325.99804688 328.55224609 C325.25892823 328.55440496 324.51980958 328.55656383 323.75829339 328.55878812 C311.44785304 328.59486575 299.1374282 328.63481649 286.8270092 328.67754889 C279.22783126 328.70373806 271.6286581 328.72638903 264.02945662 328.74453247 C258.21201864 328.75866766 252.3946041 328.77779268 246.57718658 328.79878426 C244.18499498 328.80656537 241.79279709 328.8126239 239.40059662 328.81687737 C236.14772712 328.82288927 232.89493516 328.83492029 229.64208984 328.84851074 C228.68432459 328.84880673 227.72655933 328.84910272 226.73977089 328.84940767 C225.87314009 328.85426542 225.00650928 328.85912316 224.11361694 328.86412811 C223.36209539 328.86624408 222.61057384 328.86836005 221.83627892 328.87054014 C219.9026605 328.88900132 219.9026605 328.88900132 218 330 C217.49404162 331.85518074 216.99964678 333.71455698 216.57421875 335.58984375 C215.57564955 339.7811172 214.26549114 343.88293549 213 348 C212.34 348 211.68 348 211 348 C210.95101562 348.61488281 210.90203125 349.22976563 210.8515625 349.86328125 C210.77679687 350.67152344 210.70203125 351.47976563 210.625 352.3125 C210.55539062 353.11300781 210.48578125 353.91351562 210.4140625 354.73828125 C210 357 210 357 208 360 C207.47446839 361.9393071 207.47446839 361.9393071 207.125 364.0625 C204.59077996 376.40922004 204.59077996 376.40922004 201 380 C200.46349901 382.47511803 200.03607886 384.96281184 199.59765625 387.45703125 C199.01862084 389.92077016 198.17893457 391.77673362 197 394 C196.5090838 395.63638733 196.02165072 397.2741323 195.5703125 398.921875 C194.88623929 401.41452534 194.16723101 403.89533153 193.4375 406.375 C193.06431641 407.65503906 193.06431641 407.65503906 192.68359375 408.9609375 C192 411 192 411 191 412 C190.46563416 414.21380133 190.03715388 416.44136053 189.59765625 418.67578125 C188.99632123 421.01430632 188.10343537 422.86209396 187 425 C186.32811503 427.33183607 185.66084583 429.66501142 185 432 C184.67 432.33 184.34 432.66 184 433 C183.69952329 434.30603242 183.43517336 435.62043324 183.1875 436.9375 C182.25094381 441.35469037 180.74507579 445.30437423 179.0078125 449.4609375 C177.69567101 452.76672032 176.70790903 456.12929493 175.71875 459.54296875 C174.99937444 462.00213846 174.23456918 464.43995365 173.4375 466.875 C173.09525391 467.92300781 173.09525391 467.92300781 172.74609375 468.9921875 C172 471 172 471 170.94140625 473.03515625 C169.7914019 475.18111315 169.7914019 475.18111315 169.5 478.5625 C169 482 169 482 167 485 C164.91012244 490.20379513 163.56252711 495.55342735 162.52734375 501.0546875 C162 503 162 503 160 506 C159.62117139 507.98394888 159.62117139 507.98394888 159.5 510.0625 C159 514 159 514 157 516 C156.42454595 518.35440937 156.42454595 518.35440937 156.0625 521.0625 C155.07937696 526.96123826 153.72957901 532.69981064 150.9375 538.02734375 C149.78795092 540.19024202 149.78795092 540.19024202 149.5 543.625 C149 547 149 547 147 549 C146.39557416 551.09766105 146.39557416 551.09766105 146 553.4375 C145.39542947 556.71405634 144.913029 558.1304565 143 561 C142.62080225 562.94991159 142.62080225 562.94991159 142.5 565 C142.25179145 568.27635286 141.94435842 569.08346237 140 572 C139.50627878 573.90905538 139.01650676 575.8193933 138.5625 577.73828125 C137.96900693 580.12461798 137.29749838 582.46586453 136.5625 584.8125 C136.33691406 585.54082031 136.11132812 586.26914062 135.87890625 587.01953125 C134.89712292 589.23181636 133.76801102 590.37109645 132 592 C131.278125 592.94875 130.55625 593.8975 129.8125 594.875 C125.3192262 600.21174366 120.40528775 603.1783046 113.390625 603.8046875 C111.34459087 603.8678612 109.29695381 603.89005584 107.25 603.875 C106.1868457 603.87129395 105.12369141 603.86758789 104.02832031 603.86376953 C95.90336845 603.57350369 91.28330335 602.05497302 85.171875 596.5546875 C76.31042236 586.13132415 74.60390696 572.93984699 71.74609375 559.91015625 C71.07642058 557.01516333 71.07642058 557.01516333 69.94140625 554.4375 C68.65293896 551.10138553 68.56203769 547.9440615 68.34375 544.40234375 C68.13032699 542.00624684 68.13032699 542.00624684 67.03515625 540.07421875 C65.69025941 537.37934999 65.37221324 534.84858469 64.9375 531.875 C64.40478509 527.80012848 64.40478509 527.80012848 63 524 C62.47635701 520.69532871 62.03864048 517.38305236 61.59765625 514.06640625 C61.17386391 510.84340905 61.17386391 510.84340905 59 508 C58.62840465 505.19614414 58.49555468 502.41731709 58.34375 499.59375 C58.16293863 496.76711715 58.16293863 496.76711715 56 494 C55.59854958 491.8868096 55.27340536 489.75853829 55 487.625 C54.45486634 483.39047961 53.60857688 479.93712164 52 476 C51.66218866 473.7236122 51.50283125 471.47834071 51.34375 469.18359375 C51.10937608 466.96348681 51.10937608 466.96348681 49.99609375 465.0234375 C48.82397519 462.64242804 48.69970445 460.82764629 48.5625 458.1875 C48.1865424 453.58873296 46.88798095 450.22907732 45 446 C44.3877478 443.38904062 43.89084036 440.77823468 43.4296875 438.13671875 C43.08897649 435.95953636 43.08897649 435.95953636 42 434 C41.67836223 432.06724941 41.39255897 430.12847602 41.125 428.1875 C39.95795351 420.33170943 38.51171291 412.48915508 35.97265625 404.94921875 C35.0698345 402.21174718 34.45432313 399.58166961 33.9375 396.75 C33.30740858 393.26207174 33.30740858 393.26207174 32 390 C31.84579395 388.25233141 31.72550036 386.50157777 31.625 384.75 C31.25075382 380.10210393 30.16137958 377.14264419 28 373 C27.64147401 370.71187905 27.44242345 368.46004139 27.30859375 366.1484375 C27.11205543 363.96011772 27.11205543 363.96011772 26.00390625 362.04296875 C24.465149 358.91156781 24.5506842 355.78012475 24.34375 352.33984375 C24.13129529 349.73341741 24.13129529 349.73341741 22 347 C21.38538256 343.68789489 20.98397852 340.37297256 20.5625 337.03125 C20.17538322 333.83669652 20.17538322 333.83669652 18 331 C17.65625 328.87890625 17.65625 328.87890625 17.5 326.5625 C17.32898303 324.03572428 17.15235803 322.29995488 16 320.03125 C14.46168215 316.90654186 14.55030068 313.77374873 14.34375 310.33984375 C14.13129529 307.73341741 14.13129529 307.73341741 12 305 C11.60082454 303.05401965 11.2747502 301.09240766 11 299.125 C10.56522898 296.02725648 10.13812806 293.34322731 8.96875 290.4375 C7.63251688 287.07536504 7.56146965 283.88617578 7.34375 280.3046875 C7.12677653 277.72878764 7.12677653 277.72878764 5 275 C4.60349753 273.22124585 4.27636891 271.42633306 4 269.625 C3.40864569 265.79175686 2.47143997 262.5808871 1 259 C0.62300395 257.48939776 0.28989391 255.96720803 0 254.4375 C-0.165 253.57898438 -0.33 252.72046875 -0.5 251.8359375 C-1.21907216 247.75745009 -1.8391196 243.66424342 -2.4375 239.56640625 C-2.88575917 236.77735336 -2.88575917 236.77735336 -5 234 C-5.60509754 231.20982801 -6.01257383 228.41647383 -6.4375 225.59375 C-6.88199418 222.78077587 -6.88199418 222.78077587 -9 220 C-9.34375 217.66015625 -9.34375 217.66015625 -9.5 215.0625 C-9.71755183 211.45657835 -10.34814056 209.18483505 -12 206 C-12.38350029 204.38610296 -12.7149138 202.75915482 -13 201.125 C-13.53485046 198.24438807 -14.11647023 195.6574405 -15.0625 192.875 C-15.87844032 190.37278301 -16.23526489 188.34161736 -16.5 185.75 C-16.61644977 181.97858349 -16.61644977 181.97858349 -19 180 C-19.30859375 178.08203125 -19.30859375 178.08203125 -19.4375 175.8125 C-19.8333472 171.39456245 -21.12859555 168.04223361 -23 164 C-24.11167072 160.35619042 -25.08207145 156.69587023 -26 153 C-26.12117188 153.75925781 -26.24234375 154.51851562 -26.3671875 155.30078125 C-26.53476562 156.29464844 -26.70234375 157.28851563 -26.875 158.3125 C-27.03742188 159.29863281 -27.19984375 160.28476562 -27.3671875 161.30078125 C-28 164 -28 164 -30 167 C-30.41421802 168.69477439 -30.76430827 170.40601236 -31.0625 172.125 C-31.89982425 176.89982425 -31.89982425 176.89982425 -33 178 C-33.3496303 179.5336724 -33.65466986 181.07761528 -33.9375 182.625 C-34.99930226 188.1135808 -36.20315292 193.2788103 -38.5625 198.375 C-40.04169567 202.10514559 -40.46634903 205.11966024 -40.69140625 209.08203125 C-41 211 -41 211 -43 213 C-43.60679507 215.32776875 -43.60679507 215.32776875 -44 217.9375 C-44.57459711 221.42099497 -44.99063817 222.98595726 -47 226 C-47.41421802 227.69477439 -47.76430827 229.40601236 -48.0625 231.125 C-48.89982425 235.89982425 -48.89982425 235.89982425 -50 237 C-50.47470226 239.10225285 -50.94594178 241.20535574 -51.3984375 243.3125 C-52.04123872 246.18423532 -52.75070623 249.02919741 -53.5 251.875 C-53.85578125 253.23238281 -53.85578125 253.23238281 -54.21875 254.6171875 C-55 257 -55 257 -57 260 C-57.41007897 261.52774519 -57.76152541 263.0720723 -58.0625 264.625 C-58.89939638 268.89939638 -58.89939638 268.89939638 -60 270 C-60.53487482 272.50806849 -60.96405456 275.02807921 -61.40234375 277.5546875 C-62 280 -62 280 -64 283 C-64.165 284.175625 -64.33 285.35125 -64.5 286.5625 C-65 290 -65 290 -67 292 C-67.60758175 294.29357053 -67.60758175 294.29357053 -68 296.875 C-68.5759081 300.32016455 -69.43329052 302.8982958 -71 306 C-71.22819784 307.92338175 -71.45424014 309.84712921 -71.65625 311.7734375 C-72.45150395 316.92451425 -74.11541924 321.67312886 -77 326 C-77.39250991 327.6327322 -77.72110689 329.28157213 -78 330.9375 C-78.57738268 334.35539923 -79.43681716 336.92405957 -81 340 C-81.165 341.175625 -81.33 342.35125 -81.5 343.5625 C-82 347 -82 347 -84 350 C-84.56348086 351.90349018 -84.56348086 351.90349018 -84.9375 354 C-85.69824108 357.65395321 -86.54744488 361.26582131 -87.5 364.875 C-87.85578125 366.23238281 -87.85578125 366.23238281 -88.21875 367.6171875 C-89 370 -89 370 -91 373 C-91.165 374.175625 -91.33 375.35125 -91.5 376.5625 C-92 380 -92 380 -94 382 C-94.60679507 384.32776875 -94.60679507 384.32776875 -95 386.9375 C-95.57459711 390.42099497 -95.99063817 391.98595726 -98 395 C-98.56270036 396.93773667 -98.56270036 396.93773667 -98.9375 399.0625 C-99.80350553 403.25044862 -100.94392718 407.28459869 -102.2109375 411.3671875 C-103.3392206 415.13185486 -104.2957149 418.93888863 -105.25390625 422.75 C-106 425 -106 425 -108 427 C-108.46557713 428.88996494 -108.46557713 428.88996494 -108.75 431.125 C-109.66106634 436.13586489 -111.21880802 440.74624391 -113 445.5 C-113.26135742 446.20656738 -113.52271484 446.91313477 -113.79199219 447.64111328 C-114.91437825 450.57652981 -115.75318493 452.75318493 -118 455 C-118.29777344 455.763125 -118.59554687 456.52625 -118.90234375 457.3125 C-122.33387812 465.71426386 -128.78922622 471.52133598 -137 475 C-137.72058594 475.32871094 -138.44117188 475.65742187 -139.18359375 475.99609375 C-145.88078342 478.68213239 -152.3856585 478.49501432 -159.23046875 476.27734375 C-164.36057979 473.98516648 -168.52642655 470.40709631 -172 466 C-172 465.34 -172 464.68 -172 464 C-172.99 463.67 -173.98 463.34 -175 463 C-177.48105258 460.22122111 -178.66898488 457.4449803 -180 454 C-181.90123426 449.8688134 -183.97872568 445.97329036 -186.5 442.1875 C-189.11792154 438.13576297 -190.61018638 433.88887736 -192.10546875 429.3203125 C-192.87650273 426.85321931 -192.87650273 426.85321931 -195 425 C-195.39764263 423.01178687 -195.73775349 421.01055661 -196 419 C-196.66 419 -197.32 419 -198 419 C-198.33773437 418.15695312 -198.67546875 417.31390625 -199.0234375 416.4453125 C-199.46945313 415.34960938 -199.91546875 414.25390625 -200.375 413.125 C-200.81585938 412.03445313 -201.25671875 410.94390625 -201.7109375 409.8203125 C-202.83051338 406.93670638 -202.83051338 406.93670638 -205 405 C-205.7473844 403.30345801 -206.49067135 401.60475816 -207.19677734 399.890625 C-208.41795891 397.01620858 -209.87682748 394.27233314 -211.3125 391.5 C-214.26371047 385.73176087 -216.76611643 379.86271132 -219.04614258 373.79882812 C-220.10646004 371.01918813 -220.86916669 369.13083331 -223 367 C-224.10321446 364.20748839 -225.04163154 361.37640637 -226 358.53125 C-226.85246096 355.88231552 -226.85246096 355.88231552 -229 354 C-229.125 351.375 -229.125 351.375 -229 349 C-229.80020569 349.00222061 -230.60041138 349.00444122 -231.42486572 349.00672913 C-239.01465766 349.02687574 -246.60443638 349.04204679 -254.1942482 349.05181217 C-258.09500532 349.05700162 -261.9957401 349.06402655 -265.89648438 349.07543945 C-269.67014532 349.08640978 -273.44378496 349.09230639 -277.21746063 349.09487724 C-278.64774663 349.09670627 -280.07803164 349.10027703 -281.50830841 349.10573006 C-310.68047408 349.21239427 -310.68047408 349.21239427 -322.59765625 338.7109375 C-330.16224647 329.66544867 -328.90130527 318.65563612 -328.4675293 307.46679688 C-327.92201049 304.58850862 -326.87295165 303.21389366 -325 301 C-324.4121875 299.8553125 -324.4121875 299.8553125 -323.8125 298.6875 C-318.96347461 291.4975658 -312.33868885 287.16971146 -304 285 C-297.75456276 284.27638272 -291.4236335 284.50904609 -285.1484375 284.57421875 C-283.32101804 284.57915169 -281.4935935 284.58244467 -279.66616821 284.58418274 C-275.85182326 284.59178989 -272.03785796 284.61224982 -268.22363281 284.64331055 C-263.35055356 284.68293902 -258.47771998 284.70093427 -253.60449791 284.71061993 C-248.93161172 284.72062225 -244.2587841 284.7404612 -239.5859375 284.76171875 C-238.70335644 284.7651145 -237.82077538 284.76851025 -236.91144943 284.7720089 C-234.39711426 284.78367388 -231.88292675 284.80220681 -229.36865234 284.82299805 C-228.6370137 284.82568695 -227.90537506 284.82837585 -227.15156555 284.83114624 C-214.0337855 284.9662145 -214.0337855 284.9662145 -211 288 C-209.96875 288.268125 -208.9375 288.53625 -207.875 288.8125 C-200.38172199 290.88969206 -195.1535759 295.55144575 -189.6875 300.875 C-189.1716333 301.3685498 -188.6557666 301.86209961 -188.12426758 302.37060547 C-184.59527029 305.92103274 -182.80535792 309.26689155 -181 314 C-180.01818341 316.00898884 -179.01725597 318.00872144 -178 320 C-176.66358868 322.64428469 -175.33201412 325.29099826 -174 327.9375 C-173.65710938 328.61490234 -173.31421875 329.29230469 -172.9609375 329.99023438 C-170.81213835 334.26732887 -168.87512039 338.59397942 -167 343 C-166.059117 344.94603397 -165.10116177 346.88392093 -164.125 348.8125 C-163.609375 349.84117187 -163.09375 350.86984375 -162.5625 351.9296875 C-161.55876598 353.90202484 -160.53918789 355.86642277 -159.5 357.8203125 C-158.819375 359.11582031 -158.819375 359.11582031 -158.125 360.4375 C-157.71507812 361.19933594 -157.30515625 361.96117187 -156.8828125 362.74609375 C-155.87963056 365.30731489 -155.83647913 367.273049 -156 370 C-152.789375 368.31291667 -152.789375 368.31291667 -152.15625 365.3125 C-151.9396875 364.219375 -151.723125 363.12625 -151.5 362 C-148.15492958 346.15492958 -148.15492958 346.15492958 -146 344 C-145.46512518 341.49193151 -145.03594544 338.97192079 -144.59765625 336.4453125 C-144 334 -144 334 -142 331 C-141.58992103 329.47225481 -141.23847459 327.9279277 -140.9375 326.375 C-140.10060362 322.10060362 -140.10060362 322.10060362 -139 321 C-138.46349901 318.52488197 -138.03607886 316.03718816 -137.59765625 313.54296875 C-137.01940092 311.08254902 -136.13751169 309.23818089 -135 307 C-134.835 305.824375 -134.67 304.64875 -134.5 303.4375 C-134 300 -134 300 -132 297 C-131.6066771 295.38846868 -131.27835156 293.76031542 -131 292.125 C-130.33082743 288.51251369 -129.46172371 285.38023608 -128 282 C-127.01811417 278.72704723 -126.11754776 275.44353072 -125.2421875 272.140625 C-124.97664062 271.14546875 -124.71109375 270.1503125 -124.4375 269.125 C-124.18871094 268.17882812 -123.93992188 267.23265625 -123.68359375 266.2578125 C-123 264 -123 264 -122 263 C-121.65268264 261.42393803 -121.34685523 259.83862922 -121.0625 258.25 C-120.36849864 254.59872421 -119.39597614 251.44340782 -118 248 C-117.835 246.80375 -117.67 245.6075 -117.5 244.375 C-117 241 -117 241 -115 238 C-114.27371213 235.33694446 -113.61966202 232.68805109 -113 230 C-112.50616079 227.9151977 -112.00586275 225.83191754 -111.5 223.75 C-111.14421875 222.25726563 -111.14421875 222.25726563 -110.78125 220.734375 C-110.0750946 218.26283109 -109.16319734 216.27500845 -108 214 C-107.60676075 212.61466697 -107.25128962 211.21796106 -106.9375 209.8125 C-106 206 -106 206 -105 205 C-104.46349901 202.52488197 -104.03607886 200.03718816 -103.59765625 197.54296875 C-103.01868365 195.0794971 -102.18276868 193.2211837 -101 191 C-99.33913531 185.685233 -98.06486583 180.27365594 -96.72265625 174.87109375 C-93.30909091 161.30909091 -93.30909091 161.30909091 -91 159 C-90.52159828 156.91553537 -90.04853465 154.82971064 -89.6015625 152.73828125 C-88.51604965 147.79708316 -87.25905697 142.89937388 -86 138 C-85.8246875 137.30390625 -85.649375 136.6078125 -85.46875 135.890625 C-84.72969497 133.10685104 -83.85911182 130.73583466 -82.5 128.1875 C-80.76914902 124.50944167 -80.10907444 121.06114737 -79.4296875 117.07421875 C-79 115 -79 115 -78 114 C-77.46329713 111.2307936 -77.0351126 108.45054915 -76.59765625 105.6640625 C-76 103 -76 103 -74 100 C-73.835 98.845 -73.67 97.69 -73.5 96.5 C-73 93 -73 93 -71 90 C-70.65489228 87.92094209 -70.65489228 87.92094209 -70.5625 85.6875 C-70.19180759 81.51552538 -68.94435964 78.7266893 -67 75 C-66.63858045 72.67085177 -66.30300475 70.33746522 -66 68 C-65.68289063 67.36707031 -65.36578125 66.73414063 -65.0390625 66.08203125 C-63.91024423 63.82015102 -63.42430875 61.78745207 -62.9375 59.3125 C-62.10408163 55.10408163 -62.10408163 55.10408163 -61 54 C-60.84170042 52.60755002 -60.72334922 51.21046392 -60.625 49.8125 C-60.20644058 45.59368681 -58.96554911 42.77385429 -57 39 C-56.4175072 36.84435147 -55.97264267 34.67930118 -55.5234375 32.4921875 C-52.67705691 18.94001725 -47.89956944 6.40686253 -36.12890625 -1.8125 C-26.19957993 -7.35106 -9.1273308 -6.90716926 0 0 Z " fill="#00569C" transform="translate(337,209)"/>
<path d="M0 0 C0.95057785 -0.0033284 1.9011557 -0.0066568 2.88053894 -0.01008606 C4.88853473 -0.01513968 6.89653888 -0.01749487 8.90454102 -0.01733398 C11.95928977 -0.01951612 15.01367465 -0.03767661 18.06835938 -0.05664062 C20.02473836 -0.05957583 21.98111904 -0.06155977 23.9375 -0.0625 C25.2957061 -0.07327827 25.2957061 -0.07327827 26.68135071 -0.08427429 C32.19983272 -0.06462733 36.86004136 0.65961257 42.16796875 2.16796875 C45.77180789 2.71538735 49.37808244 3.16309182 52.99609375 3.60546875 C55.86966406 4.11506742 57.646541 4.80286456 60.16796875 6.16796875 C61.55295937 6.52547111 62.95054643 6.83676776 64.35546875 7.10546875 C71.56494082 8.62759952 78.23665636 11.07381169 84.92578125 14.140625 C86.39163015 14.8122596 87.86549735 15.466731 89.34765625 16.1015625 C99.34391191 20.38821306 109.45517759 25.62916223 118.16796875 32.16796875 C118.16796875 32.82796875 118.16796875 33.48796875 118.16796875 34.16796875 C118.74675781 34.27496094 119.32554687 34.38195312 119.921875 34.4921875 C122.47723824 35.26101853 124.00923521 36.34084053 126.10546875 37.98046875 C126.80027344 38.52058594 127.49507812 39.06070313 128.2109375 39.6171875 C128.85675781 40.12894531 129.50257813 40.64070313 130.16796875 41.16796875 C131.07546875 41.86921875 131.98296875 42.57046875 132.91796875 43.29296875 C135.14240696 45.14666726 137.12091387 47.12091387 139.16796875 49.16796875 C139.709375 49.61398437 140.25078125 50.06 140.80859375 50.51953125 C146.44526211 55.17092831 150.99133585 60.47610613 155.625 66.08984375 C157.53973106 68.40752128 159.4824812 70.6735103 161.48046875 72.91796875 C164.27304134 76.14763966 166.57140651 79.65828418 168.87109375 83.25 C170.15916334 85.28562203 170.15916334 85.28562203 172.16796875 87.16796875 C172.83463542 88.83463542 173.50130208 90.50130208 174.16796875 92.16796875 C174.82796875 92.82796875 175.48796875 93.48796875 176.16796875 94.16796875 C177.26269968 96.69953402 178.20621945 99.27076752 179.16796875 101.85546875 C180.05815378 104.30373002 180.05815378 104.30373002 182.16796875 106.16796875 C182.84736049 108.16368198 183.51358434 110.16391648 184.16796875 112.16796875 C184.82796875 113.15796875 185.48796875 114.14796875 186.16796875 115.16796875 C186.87702813 117.15333502 187.53491054 119.15707797 188.16796875 121.16796875 C188.68451462 122.77352112 189.20553563 124.37763898 189.73046875 125.98046875 C189.97925781 126.75003906 190.22804688 127.51960938 190.484375 128.3125 C191.01641483 130.15610089 191.01641483 130.15610089 192.16796875 131.16796875 C192.70618667 133.90428676 193.13274911 136.65217455 193.5703125 139.40625 C194.02905424 142.11500942 194.02905424 142.11500942 195.203125 144.15234375 C196.48377523 146.82771022 196.51906573 149.15346633 196.66796875 152.10546875 C196.82330561 156.29338929 196.82330561 156.29338929 198.17358017 160.18476105 C199.68330362 164.71399511 199.44266516 169.12851951 199.42193604 173.87194824 C199.42505602 174.96300102 199.428176 176.05405379 199.43139052 177.17816877 C199.43937955 180.84083905 199.43304325 184.50334406 199.42675781 188.16601562 C199.42946727 190.78914996 199.43302794 193.41228353 199.43737793 196.03541565 C199.44627306 202.42460551 199.44434939 208.8137484 199.43855265 215.20294011 C199.43403664 220.39538339 199.43342299 225.5878135 199.43560028 230.78025818 C199.43590675 231.51915857 199.43621321 232.25805895 199.43652897 233.01935026 C199.43716841 234.52039294 199.43781684 236.02143561 199.43847415 237.52247828 C199.44417779 251.59911278 199.43761901 265.67572124 199.42687342 279.75235146 C199.41793787 291.83182157 199.4194899 303.91125324 199.42871094 315.99072266 C199.43941296 330.01684785 199.44362847 344.04295022 199.43748641 358.06907892 C199.43684931 359.56461239 199.43622057 361.06014585 199.43560028 362.55567932 C199.43529173 363.29151826 199.43498318 364.02735721 199.43466528 364.7854943 C199.43293813 369.97194623 199.43585386 375.15838368 199.44055939 380.34483337 C199.44675291 387.32481989 199.4423459 394.3047325 199.43077087 401.28471184 C199.42812137 403.84980587 199.4288943 406.41490601 199.4332962 408.97999763 C199.43874152 412.47474479 199.43192959 415.96925716 199.42193604 419.46398926 C199.42639748 420.48489765 199.43085892 421.50580604 199.43545556 422.55765104 C199.40938044 427.24192111 199.30290241 430.89560158 197.16796875 435.16796875 C196.9574967 437.09951609 196.81442481 439.03930287 196.73046875 440.98046875 C196.42019001 445.38321708 195.79980805 448.85802684 194.05859375 452.88671875 C192.37525367 457.19843194 191.32395688 461.72341892 190.1328125 466.19140625 C189.16796875 469.16796875 189.16796875 469.16796875 187.16796875 471.16796875 C186.37847784 473.12634776 186.37847784 473.12634776 185.73046875 475.35546875 C183.53668329 482.51347732 180.33769974 488.9262994 176.66796875 495.41796875 C176.27738281 496.124375 175.88679688 496.83078125 175.484375 497.55859375 C175.10152344 498.23921875 174.71867187 498.91984375 174.32421875 499.62109375 C173.98197266 500.23114258 173.63972656 500.84119141 173.28710938 501.46972656 C172.16796875 503.16796875 172.16796875 503.16796875 170.63476562 504.69824219 C168.92200598 506.27125351 168.92200598 506.27125351 167.54296875 509.23046875 C165.16847294 513.53706381 161.92875121 516.89662191 158.59765625 520.484375 C156.14569284 523.19257253 153.87477865 525.99331145 151.60546875 528.85546875 C147.81171731 533.52722139 143.84087235 537.39759346 139.16796875 541.16796875 C138.28882813 541.89886719 137.4096875 542.62976563 136.50390625 543.3828125 C131.78212346 547.29161616 127.02228908 551.12563331 122.078125 554.75 C120.71256905 555.76369491 119.36826117 556.80626746 118.0390625 557.8671875 C117.33910156 558.42019531 116.63914062 558.97320313 115.91796875 559.54296875 C115.2940625 560.04570313 114.67015625 560.5484375 114.02734375 561.06640625 C112.16796875 562.16796875 112.16796875 562.16796875 108.16796875 562.16796875 C107.83796875 563.15796875 107.50796875 564.14796875 107.16796875 565.16796875 C105.49609375 566.265625 105.49609375 566.265625 103.41796875 567.23046875 C102.7425 567.55144531 102.06703125 567.87242187 101.37109375 568.203125 C99.83101457 568.8775923 98.27589525 569.51827424 96.7109375 570.1328125 C94.13248212 571.18241415 91.70153096 572.38754473 89.23046875 573.66796875 C84.48571747 576.06140098 79.85642359 577.70748107 74.73046875 579.10546875 C71.14428403 580.09225589 71.14428403 580.09225589 67.79296875 581.66796875 C64.27369756 583.1242189 60.995157 583.98626456 57.28125 584.73828125 C55.19753203 585.13439744 55.19753203 585.13439744 53.3046875 585.6953125 C49.35666469 586.56864113 45.29036142 586.57192236 41.26171875 586.7890625 C38.28112047 586.95459119 38.28112047 586.95459119 36.38012695 588.17504883 C33.39873396 589.51323725 30.94144332 589.42719232 27.6796875 589.43359375 C26.41576172 589.43617188 25.15183594 589.43875 23.84960938 589.44140625 C22.53154297 589.43367187 21.21347656 589.4259375 19.85546875 589.41796875 C18.54900391 589.42570313 17.24253906 589.4334375 15.89648438 589.44140625 C13.99479492 589.43753906 13.99479492 589.43753906 12.0546875 589.43359375 C10.32545044 589.43020996 10.32545044 589.43020996 8.5612793 589.42675781 C4.87144852 589.14535479 1.69967594 588.24594346 -1.83203125 587.16796875 C-4.01338628 586.78567957 -4.01338628 586.78567957 -5.99609375 586.640625 C-6.71974121 586.57230469 -7.44338867 586.50398437 -8.18896484 586.43359375 C-8.93742676 586.3665625 -9.68588867 586.29953125 -10.45703125 586.23046875 C-19.48254581 585.32438953 -28.66964577 584.34249438 -36.83203125 580.16796875 C-38.04890625 579.87921875 -39.26578125 579.59046875 -40.51953125 579.29296875 C-44.35949502 578.38071216 -47.74961969 576.97633068 -51.3203125 575.3125 C-55.26748336 573.51386693 -59.3026851 571.93069505 -63.328125 570.31640625 C-65.83203125 569.16796875 -65.83203125 569.16796875 -67.83203125 567.16796875 C-68.65703125 566.83796875 -69.48203125 566.50796875 -70.33203125 566.16796875 C-72.83203125 565.16796875 -72.83203125 565.16796875 -74.83203125 563.16796875 C-75.59515625 562.87921875 -76.35828125 562.59046875 -77.14453125 562.29296875 C-80.20482093 561.01191726 -82.25412679 559.24286746 -84.83203125 557.16796875 C-86.80914776 556.12345437 -88.80454121 555.11098737 -90.83203125 554.16796875 C-90.83203125 553.50796875 -90.83203125 552.84796875 -90.83203125 552.16796875 C-91.39688232 551.90008545 -91.9617334 551.63220215 -92.54370117 551.35620117 C-101.24699396 546.83695162 -108.18996134 540.27952925 -115.01953125 533.35546875 C-115.86966797 532.51693359 -116.71980469 531.67839844 -117.59570312 530.81445312 C-131.83203125 516.51216518 -131.83203125 516.51216518 -131.83203125 511.16796875 C-132.82203125 510.83796875 -133.81203125 510.50796875 -134.83203125 510.16796875 C-136.26171875 508.19921875 -136.26171875 508.19921875 -137.70703125 505.66796875 C-138.23039063 504.75917969 -138.75375 503.85039063 -139.29296875 502.9140625 C-139.80085937 502.00785156 -140.30875 501.10164063 -140.83203125 500.16796875 C-141.47011719 499.04068359 -141.47011719 499.04068359 -142.12109375 497.890625 C-142.93357663 496.44126037 -143.73687713 494.9867128 -144.53125 493.52734375 C-145.48691622 491.79394316 -146.47328557 490.07737946 -147.4765625 488.37109375 C-148.02699219 487.4171875 -148.57742188 486.46328125 -149.14453125 485.48046875 C-149.65628906 484.61035156 -150.16804687 483.74023438 -150.6953125 482.84375 C-152.00233485 479.76708228 -152.04040726 477.47775511 -151.83203125 474.16796875 C-152.82203125 473.83796875 -153.81203125 473.50796875 -154.83203125 473.16796875 C-157.46539819 468.02997726 -158.36387554 461.97690302 -159.3046875 456.33203125 C-159.76838078 453.89301127 -159.76838078 453.89301127 -161.83203125 451.16796875 C-162.1707697 448.59098387 -162.27246719 446.0409728 -162.390625 443.4453125 C-162.7767992 440.57805454 -163.41041656 438.35836364 -164.33535767 435.64401245 C-166.0167756 430.11093034 -166.2566636 425.02566574 -166.22021484 419.27392578 C-166.2254718 418.23525864 -166.23072876 417.19659149 -166.23614502 416.12644958 C-166.24924727 412.72606959 -166.24064546 409.3261652 -166.23046875 405.92578125 C-166.23249137 403.55068879 -166.23540437 401.17559693 -166.23916626 398.80050659 C-166.24357557 393.83960009 -166.23719992 388.87885627 -166.22314453 383.91796875 C-166.2059975 377.55570703 -166.21593771 371.19382347 -166.23386192 364.83157539 C-166.24468955 359.93487687 -166.24125905 355.03826843 -166.23347855 350.14156723 C-166.23147662 347.79477773 -166.23393553 345.44798007 -166.24091721 343.1012001 C-166.24852082 339.82912655 -166.23694475 336.55767187 -166.22021484 333.28564453 C-166.22628754 332.31520706 -166.23236023 331.34476959 -166.23861694 330.34492493 C-166.23015747 329.45356339 -166.221698 328.56220184 -166.21298218 327.64382935 C-166.2118511 326.87144991 -166.21072002 326.09907047 -166.20955467 325.3032856 C-165.72602541 322.56838729 -164.72034483 321.1796197 -162.83203125 319.16796875 C-160.13769531 318.66003418 -160.13769531 318.66003418 -156.84765625 318.65039062 C-155.00059082 318.63147766 -155.00059082 318.63147766 -153.11621094 318.61218262 C-151.77147856 318.61934224 -150.4267514 318.62754618 -149.08203125 318.63671875 C-147.70344773 318.63402412 -146.32486607 318.63014195 -144.94628906 318.62512207 C-142.05775854 318.61922545 -139.16972296 318.62779428 -136.28125 318.64648438 C-132.57855842 318.66927518 -128.87702647 318.65615281 -125.17437744 318.63219452 C-122.32787335 318.61774027 -119.48164421 318.62234055 -116.63513184 318.63270569 C-115.26997745 318.63537407 -113.90479809 318.63209923 -112.53967285 318.62278748 C-110.63192217 318.61263023 -108.72408397 318.63085702 -106.81640625 318.65039062 C-105.73069336 318.653573 -104.64498047 318.65675537 -103.52636719 318.66003418 C-100.83203125 319.16796875 -100.83203125 319.16796875 -99.00086975 320.95033264 C-95.46445391 327.65997084 -96.72588839 336.80837501 -96.8046875 344.171875 C-96.81906272 346.53222333 -96.83287624 348.89257514 -96.84619141 351.25292969 C-96.85866913 353.08736633 -96.85866913 353.08736633 -96.87139893 354.9588623 C-97.03258742 381.20298048 -97.03258742 381.20298048 -95.95703125 407.41796875 C-95.878479 408.6922876 -95.79992676 409.96660645 -95.71899414 411.27954102 C-95.26654286 417.99634587 -95.26654286 417.99634587 -92.83203125 424.16796875 C-92.24607181 426.97162188 -91.82479571 429.77808118 -91.39453125 432.609375 C-90.94519186 435.39159133 -90.94519186 435.39159133 -88.83203125 438.16796875 C-88.15944458 440.49960253 -87.49355681 442.83317265 -86.83203125 445.16796875 C-76.65765709 470.3827221 -56.17575744 492.68401469 -31.17578125 503.87109375 C-29.12671227 504.71999376 -27.0667332 505.54353908 -24.9921875 506.328125 C-22.83203125 507.16796875 -22.83203125 507.16796875 -21.83203125 508.16796875 C-19.38988285 508.7061459 -16.93449347 509.13175168 -14.47265625 509.5703125 C-11.83203125 510.16796875 -11.83203125 510.16796875 -9.79736328 511.18652344 C-5.45730604 512.6229659 -1.28952689 512.47317144 3.25390625 512.46875 C4.22905182 512.47303513 5.20419739 512.47732025 6.20889282 512.48173523 C8.26816025 512.48746828 10.32744792 512.48798635 12.38671875 512.48364258 C15.5250941 512.48048672 18.66252261 512.50394069 21.80078125 512.52929688 C23.8059884 512.53157049 25.81119807 512.53227308 27.81640625 512.53125 C28.74891205 512.54045975 29.68141785 512.54966949 30.6421814 512.55915833 C36.30890503 512.51924182 40.08855345 511.66234616 45.16796875 509.16796875 C46.28171875 509.02359375 47.39546875 508.87921875 48.54296875 508.73046875 C53.20677579 508.00677455 56.93228487 506.17315952 61.16796875 504.16796875 C62.41559353 503.64147109 63.66540611 503.12010862 64.91796875 502.60546875 C79.07722103 496.34272255 93.68229496 484.89647943 102.29296875 471.98046875 C104.16796875 469.16796875 104.16796875 469.16796875 106.23046875 467.16796875 C108.60152097 464.72043098 109.71891425 462.24720956 111.16796875 459.16796875 C111.78671875 458.15734375 112.40546875 457.14671875 113.04296875 456.10546875 C115.63215533 451.67397634 117.26432054 446.86585875 119.01953125 442.05859375 C120.16796875 439.16796875 120.16796875 439.16796875 122.16796875 436.16796875 C122.5510952 433.79245468 122.5510952 433.79245468 122.66796875 431.23046875 C122.94861927 426.57868645 122.94861927 426.57868645 124.17372298 424.2847591 C125.28045634 421.92847803 125.41852617 420.41511109 125.41965103 417.82666683 C125.42486653 416.96015403 125.43008202 416.09364122 125.43545556 415.20087045 C125.43099412 414.25350395 125.42653267 413.30613745 125.42193604 412.33006287 C125.42505602 411.32012443 125.428176 410.310186 125.43139052 409.26964337 C125.43938653 405.87558555 125.43304059 402.48170573 125.42675781 399.08764648 C125.42946694 396.65845637 125.43302743 394.22926708 125.43737793 391.80007935 C125.44556368 385.88132874 125.44434798 379.9626246 125.43855265 374.04387527 C125.43403839 369.23468583 125.43342223 364.42551061 125.43560028 359.61631966 C125.43605998 358.59016051 125.43605998 358.59016051 125.43652897 357.54327087 C125.43716841 356.1535952 125.43781683 354.76391953 125.43847415 353.37424386 C125.44417868 340.34016168 125.43761741 327.30610763 125.42687342 314.27203006 C125.41793579 303.08278786 125.41949145 291.89358716 125.42871094 280.7043457 C125.43940796 267.71578779 125.44363145 254.72725452 125.43748641 241.73869282 C125.4368493 240.35439591 125.43622056 238.970099 125.43560028 237.58580208 C125.43529173 236.90466893 125.43498318 236.22353578 125.43466528 235.52176223 C125.43293678 230.71659909 125.43585673 225.91145155 125.44055939 221.10629082 C125.44674607 214.64259646 125.44235724 208.17896217 125.43077087 201.71527481 C125.42811818 199.33801085 125.4288997 196.96074031 125.4332962 194.58347893 C125.43872898 191.34852581 125.43194512 188.11382768 125.42193604 184.87889099 C125.42639748 183.92929377 125.43085892 182.97969654 125.43545556 182.00132364 C125.43024007 181.13741858 125.42502457 180.27351353 125.41965103 179.38342953 C125.41932633 178.63640961 125.41900162 177.88938969 125.41866708 177.1197328 C125.27333372 174.84482486 125.27333372 174.84482486 123.16796875 172.16796875 C122.859375 169.8984375 122.859375 169.8984375 122.73046875 167.35546875 C122.37395298 162.96905152 121.3613655 160.02834704 119.16796875 156.16796875 C118.50130208 154.16796875 117.83463542 152.16796875 117.16796875 150.16796875 C112.40161691 138.3102154 106.14487602 125.98686244 96.92578125 116.9765625 C95.16796875 115.16796875 95.16796875 115.16796875 95.16796875 113.16796875 C94.60207031 112.93464844 94.03617188 112.70132813 93.453125 112.4609375 C90.61763169 110.85658145 88.8226335 108.86565587 86.60546875 106.48046875 C81.606678 101.37108528 76.33866222 97.72137118 70.16796875 94.16796875 C69.54148437 93.7915625 68.915 93.41515625 68.26953125 93.02734375 C60.78479371 88.59975253 53.64314383 85.10090342 45.16796875 83.16796875 C44.17796875 82.50796875 43.18796875 81.84796875 42.16796875 81.16796875 C39.59673504 80.78319671 39.59673504 80.78319671 36.79296875 80.66796875 C33.85070109 80.50586034 31.60038633 80.35922501 28.89599609 79.16308594 C25.68987045 77.99357026 23.13931427 77.90924026 19.73046875 77.90234375 C17.89355469 77.89847656 17.89355469 77.89847656 16.01953125 77.89453125 C14.11300781 77.90613281 14.11300781 77.90613281 12.16796875 77.91796875 C10.89695312 77.91023438 9.6259375 77.9025 8.31640625 77.89453125 C7.09179688 77.89710938 5.8671875 77.8996875 4.60546875 77.90234375 C3.49042969 77.90459961 2.37539063 77.90685547 1.2265625 77.90917969 C-1.86577594 78.1708239 -4.01459972 78.92303604 -6.83203125 80.16796875 C-9.6932617 80.51622363 -12.52887449 80.66847447 -15.40625 80.82421875 C-18.01003562 80.94537209 -18.01003562 80.94537209 -19.83203125 83.16796875 C-21.64453125 83.625 -21.64453125 83.625 -23.83203125 83.98046875 C-30.79719515 85.40261636 -36.7050966 88.89287688 -42.76953125 92.48046875 C-45.83203125 94.16796875 -45.83203125 94.16796875 -48.83203125 94.16796875 C-49.32703125 95.65296875 -49.32703125 95.65296875 -49.83203125 97.16796875 C-51.87109375 98.74609375 -51.87109375 98.74609375 -54.45703125 100.41796875 C-58.63130916 103.22274861 -62.06903819 106.17719509 -65.45703125 109.8828125 C-66.83203125 111.16796875 -66.83203125 111.16796875 -68.83203125 111.16796875 C-69.07308594 111.6990625 -69.31414062 112.23015625 -69.5625 112.77734375 C-71.18395415 115.83066663 -73.15177886 118.60120731 -75.14453125 121.41796875 C-81.81642047 130.83717923 -81.81642047 130.83717923 -86.83203125 141.16796875 C-87.13882813 141.92335938 -87.445625 142.67875 -87.76171875 143.45703125 C-88.43273854 145.11517105 -89.09456543 146.7770443 -89.75 148.44140625 C-90.45854619 150.22684033 -91.18959764 152.00354495 -91.9453125 153.76953125 C-94.56596783 160.23063783 -95.35423089 166.03984874 -95.55859375 173.00390625 C-95.83070344 176.15260407 -96.64827983 178.27276949 -97.83203125 181.16796875 C-97.92129019 183.53915195 -97.77237076 185.81426124 -97.609375 188.1796875 C-97.68285156 188.83582031 -97.75632812 189.49195313 -97.83203125 190.16796875 C-101.34364623 192.50904541 -102.76999729 192.42078407 -106.92407227 192.42675781 C-108.17869766 192.43306213 -109.43332306 192.43936646 -110.72596741 192.44586182 C-112.09595887 192.44228241 -113.46594904 192.43818054 -114.8359375 192.43359375 C-116.23933479 192.4349409 -117.64273163 192.43688184 -119.04612732 192.43939209 C-121.98579354 192.44234007 -124.92533815 192.43805564 -127.86499023 192.42871094 C-131.63698005 192.41730597 -135.40868559 192.42388436 -139.18066502 192.43585587 C-142.07767387 192.44307438 -144.97461504 192.44078679 -147.8716259 192.43560028 C-149.26272553 192.4342643 -150.65383128 192.43590972 -152.04492378 192.44055939 C-153.98640962 192.44562533 -155.92791695 192.436538 -157.86938477 192.42675781 C-158.97508316 192.42516663 -160.08078156 192.42357544 -161.21998596 192.42193604 C-163.83203125 192.16796875 -163.83203125 192.16796875 -165.83203125 190.16796875 C-166.01998513 187.30823624 -166.0875344 184.54715787 -166.0625 181.6875 C-166.06204178 180.84128586 -166.06158356 179.99507172 -166.06111145 179.12321472 C-166.05808639 177.32846683 -166.05019254 175.53372162 -166.0378418 173.73901367 C-166.01971968 171.00885566 -166.01733125 168.27903969 -166.01757812 165.54882812 C-166.01265742 163.80338252 -166.00682671 162.05793919 -166 160.3125 C-165.99888718 159.50182571 -165.99777435 158.69115143 -165.99662781 157.85591125 C-165.9056096 146.81612869 -165.9056096 146.81612869 -163.89453125 141.85546875 C-161.98026421 137.01349918 -161.32663613 131.79893421 -160.3671875 126.6953125 C-159.46592848 122.23370793 -158.33574507 119.02786089 -155.83203125 115.16796875 C-155.53554688 114.27207031 -155.2390625 113.37617188 -154.93359375 112.453125 C-153.75204962 108.92944199 -152.28573556 105.65629532 -150.70703125 102.29296875 C-150.16820312 101.14054687 -149.629375 99.988125 -149.07421875 98.80078125 C-148.66429687 97.93195313 -148.254375 97.063125 -147.83203125 96.16796875 C-147.17203125 96.16796875 -146.51203125 96.16796875 -145.83203125 96.16796875 C-145.64640625 95.23984375 -145.46078125 94.31171875 -145.26953125 93.35546875 C-143.1121953 85.73495113 -137.70951291 79.24938576 -132.83203125 73.16796875 C-132.41953125 72.40484375 -132.00703125 71.64171875 -131.58203125 70.85546875 C-129.41818453 67.53241843 -126.78005008 65.0343463 -123.9453125 62.27734375 C-121.95278056 60.28849486 -120.10274861 58.24077384 -118.26953125 56.10546875 C-112.61869262 49.55970092 -106.41841132 43.76149747 -99.83203125 38.16796875 C-98.98640625 37.44609375 -98.14078125 36.72421875 -97.26953125 35.98046875 C-95.27373182 34.49641277 -93.37063036 33.30696638 -91.20703125 32.10546875 C-87.99337362 30.46989231 -87.99337362 30.46989231 -86.44921875 28.73046875 C-84.36842988 26.72004472 -82.13971219 25.57718064 -79.58203125 24.23046875 C-76.34132795 22.50750908 -73.12074625 20.77856766 -69.95703125 18.91796875 C-67.25413428 17.40434645 -64.7166824 16.26688348 -61.83203125 15.16796875 C-60.39228565 14.52715712 -58.95503027 13.88073754 -57.51953125 13.23046875 C-53.34716705 11.36057978 -49.12151136 9.74830353 -44.83203125 8.16796875 C-44.17203125 7.83796875 -43.51203125 7.50796875 -42.83203125 7.16796875 C-40.53278628 6.89772167 -38.23401638 6.72299034 -35.92578125 6.546875 C-33.61892027 6.33478098 -33.61892027 6.33478098 -31.83203125 4.16796875 C-29.05329662 3.56111866 -26.32428955 3.04832532 -23.51953125 2.60546875 C-22.00253797 2.35456655 -20.48560918 2.10327414 -18.96875 1.8515625 C-18.29545654 1.74384521 -17.62216309 1.63612793 -16.9284668 1.52514648 C-14.81307614 1.19152359 -14.81307614 1.19152359 -12.68798828 0.63574219 C-8.4622888 -0.05637956 -4.27524432 0.00521927 0 0 Z " fill="#0056B3" transform="translate(805.83203125,249.83203125)"/>
</svg>
